<svg width="79" height="36" fill="none" xmlns="http://www.w3.org/2000/svg"><path d="M4.56 7.448L9.696.872h7.488l5.136 6.576h-6.576l-2.16-3.168h-.096L11.28 7.448H4.56zm9.312 28.272c-3.968 0-7.152-1.216-9.552-3.648-2.368-2.464-3.552-5.6-3.552-9.408 0-3.712 1.168-6.8 3.504-9.264 2.368-2.464 5.408-3.696 9.12-3.696 3.36 0 6.16 1.024 8.4 3.072 2.944 2.688 4.384 6.672 4.32 11.952H8.448c.256 1.696.848 3.024 1.776 3.984.928.928 2.176 1.392 3.744 1.392 2.016 0 3.376-.816 4.08-2.448h7.632c-.576 2.368-1.952 4.304-4.128 5.808-2.144 1.504-4.704 2.256-7.68 2.256zM8.496 20.072h9.696c-.128-1.472-.624-2.64-1.488-3.504-.832-.864-1.888-1.296-3.168-1.296-2.784 0-4.464 1.6-5.04 4.8zM37.563 35V13.976h-7.056V8.504c2.304-.064 4.24-.656 5.808-1.776 1.568-1.12 2.544-2.752 2.928-4.896h6.432V35h-8.112zm28.284.768c-4.544 0-8-1.056-10.368-3.168-2.432-2.144-3.648-5.136-3.648-8.976h7.632c.224 3.968 2.24 5.952 6.048 5.952 1.632 0 2.896-.4 3.792-1.2.896-.832 1.344-1.952 1.344-3.36 0-2.88-1.872-4.32-5.616-4.32h-1.968V15.08h1.776c1.568 0 2.8-.336 3.696-1.008.928-.672 1.392-1.616 1.392-2.832 0-1.152-.384-2.064-1.152-2.736-.768-.672-1.824-1.008-3.168-1.008-1.664 0-2.928.464-3.792 1.392-.864.928-1.344 2.144-1.44 3.648H52.84c.064-3.328 1.216-6 3.456-8.016 2.272-2.048 5.408-3.072 9.408-3.072 3.68 0 6.624.832 8.832 2.496 2.24 1.632 3.36 3.888 3.36 6.768 0 3.072-1.664 5.264-4.992 6.576v.096c3.968 1.216 5.952 3.904 5.952 8.064 0 3.36-1.248 5.92-3.744 7.68-2.464 1.76-5.552 2.64-9.264 2.64z" fill="#000"/></svg>