<svg width="50" height="50" fill="none" xmlns="http://www.w3.org/2000/svg"><path d="M32.682 0H17.344C3.334 0 0 3.333 0 17.318v15.338C0 46.666 3.307 50 17.318 50h15.338C46.666 50 50 46.693 50 32.682V17.344C50 3.334 46.693 0 32.682 0zm7.682 35.677H36.72c-1.38 0-1.797-1.12-4.271-3.594-2.162-2.083-3.073-2.343-3.62-2.343-.755 0-.963.208-.963 1.25v3.28c0 .886-.287 1.407-2.604 1.407a14.23 14.23 0 01-11.12-6.667 29.065 29.065 0 01-5.756-12.083c0-.547.209-1.042 1.25-1.042h3.646c.938 0 1.276.417 1.64 1.38 1.772 5.209 4.793 9.74 6.017 9.74.468 0 .677-.208.677-1.38V20.26c-.157-2.448-1.459-2.656-1.459-3.541a.9.9 0 01.938-.834h5.729c.781 0 1.041.39 1.041 1.328v7.24c0 .781.34 1.042.573 1.042.47 0 .834-.26 1.693-1.12a29.995 29.995 0 004.48-7.448 1.57 1.57 0 011.588-1.042h3.646c1.093 0 1.328.547 1.093 1.328a45.513 45.513 0 01-4.895 8.412c-.39.599-.547.911 0 1.614.364.547 1.64 1.615 2.5 2.63a16.213 16.213 0 013.072 4.272c.313 1.015-.208 1.536-1.25 1.536z" fill="#000"/></svg>