<svg width="79" height="36" viewBox="0 0 79 36" fill="none" xmlns="http://www.w3.org/2000/svg">
<path d="M4.56 7.448L9.696 0.871999H17.184L22.32 7.448H15.744L13.584 4.28H13.488L11.28 7.448H4.56ZM13.872 35.72C9.904 35.72 6.72 34.504 4.32 32.072C1.952 29.608 0.768 26.472 0.768 22.664C0.768 18.952 1.936 15.864 4.272 13.4C6.64 10.936 9.68 9.704 13.392 9.704C16.752 9.704 19.552 10.728 21.792 12.776C24.736 15.464 26.176 19.448 26.112 24.728H8.448C8.704 26.424 9.296 27.752 10.224 28.712C11.152 29.64 12.4 30.104 13.968 30.104C15.984 30.104 17.344 29.288 18.048 27.656H25.68C25.104 30.024 23.728 31.96 21.552 33.464C19.408 34.968 16.848 35.72 13.872 35.72ZM8.496 20.072H18.192C18.064 18.6 17.568 17.432 16.704 16.568C15.872 15.704 14.816 15.272 13.536 15.272C10.752 15.272 9.072 16.872 8.496 20.072ZM37.5634 35V13.976H30.5074V8.504C32.8114 8.44 34.7474 7.848 36.3154 6.728C37.8834 5.608 38.8594 3.976 39.2434 1.832H45.6754V35H37.5634ZM65.8474 35.768C61.3034 35.768 57.8474 34.712 55.4794 32.6C53.0474 30.456 51.8314 27.464 51.8314 23.624H59.4634C59.6874 27.592 61.7034 29.576 65.5114 29.576C67.1434 29.576 68.4074 29.176 69.3034 28.376C70.1994 27.544 70.6474 26.424 70.6474 25.016C70.6474 22.136 68.7754 20.696 65.0314 20.696H63.0634V15.08H64.8394C66.4074 15.08 67.6394 14.744 68.5354 14.072C69.4634 13.4 69.9274 12.456 69.9274 11.24C69.9274 10.088 69.5434 9.176 68.7754 8.504C68.0074 7.832 66.9514 7.496 65.6074 7.496C63.9434 7.496 62.6794 7.96 61.8154 8.888C60.9514 9.816 60.4714 11.032 60.3754 12.536H52.8394C52.9034 9.208 54.0554 6.536 56.2954 4.52C58.5674 2.472 61.7034 1.448 65.7034 1.448C69.3834 1.448 72.3274 2.28 74.5354 3.944C76.7754 5.576 77.8954 7.832 77.8954 10.712C77.8954 13.784 76.2314 15.976 72.9034 17.288V17.384C76.8714 18.6 78.8554 21.288 78.8554 25.448C78.8554 28.808 77.6074 31.368 75.1114 33.128C72.6474 34.888 69.5594 35.768 65.8474 35.768Z" fill="black"/>
</svg>
