<svg width="50" height="50" viewBox="0 0 50 50" fill="none" xmlns="http://www.w3.org/2000/svg">
<path d="M25 0C38.8071 0 50 11.1929 50 25C50 38.8071 38.8071 50 25 50C11.1929 50 0 38.8071 0 25C0 11.1929 11.1929 0 25 0ZM36.1038 15C35.1514 15.0169 33.6901 15.5185 26.6579 18.4062C24.1949 19.4176 19.2724 21.511 11.8905 24.6862C10.6918 25.1568 10.0638 25.6172 10.0067 26.0674C9.89691 26.9317 11.1573 27.2008 12.7431 27.7097C14.036 28.1246 15.7752 28.61 16.6793 28.6293C17.4995 28.6468 18.4148 28.313 19.4254 27.6279C26.3226 23.0314 29.883 20.7081 30.1065 20.658C30.2642 20.6226 30.4827 20.5782 30.6308 20.7081C30.7789 20.8381 30.7643 21.0841 30.7486 21.1501C30.6232 21.6779 24.1441 27.4961 23.7712 27.8785L23.5924 28.0583C22.2185 29.4153 20.8299 30.3013 23.2258 31.86C25.3892 33.2675 26.6482 34.1653 28.8769 35.6077C30.3012 36.5294 31.4178 37.6224 32.8883 37.4888C33.565 37.4274 34.2639 36.7992 34.6189 34.9258C35.4578 30.4983 37.1067 20.9052 37.4878 16.9522C37.5212 16.6058 37.4792 16.1626 37.4454 15.968C37.4117 15.7734 37.3412 15.4962 37.085 15.291C36.7817 15.0479 36.3133 14.9967 36.1038 15Z" fill="black"/>
</svg>
