<svg width="50" height="50" viewBox="0 0 50 50" fill="none" xmlns="http://www.w3.org/2000/svg">
<path d="M32.6824 0H17.3438C3.33328 0 0 3.33328 0 17.3176V32.6562C0 46.6666 3.30735 50 17.3176 50H32.6562C46.6667 50 50 46.6926 50 32.6822V17.3438C50 3.33328 46.6926 0 32.6824 0ZM40.3645 35.677H36.7188C35.3386 35.677 34.9219 34.5572 32.448 32.0833C30.2864 30 29.375 29.7395 28.8281 29.7395C28.073 29.7395 27.8645 29.9478 27.8645 30.9895V34.2708C27.8645 35.1562 27.5781 35.677 25.2605 35.677C23.0114 35.5259 20.8305 34.8427 18.8972 33.6836C16.9639 32.5246 15.3336 30.9228 14.1406 29.0103C11.3084 25.4851 9.33777 21.3477 8.38548 16.927C8.38547 16.3801 8.59375 15.8853 9.63548 15.8853H13.2812C14.2188 15.8853 14.5574 16.302 14.9219 17.2656C16.6926 22.4739 19.7136 27.0051 20.9375 27.0051C21.4062 27.0051 21.6145 26.7969 21.6145 25.625V20.2603C21.4583 17.8125 20.1562 17.6041 20.1562 16.7188C20.1734 16.4852 20.2809 16.2675 20.4559 16.1119C20.631 15.9563 20.8598 15.875 21.0938 15.8853H26.823C27.6042 15.8853 27.8645 16.2759 27.8645 17.2134V24.4531C27.8645 25.2344 28.2031 25.4947 28.4375 25.4947C28.9062 25.4947 29.2708 25.2344 30.1301 24.375C31.9769 22.1229 33.4858 19.614 34.6094 16.927C34.7241 16.6037 34.9414 16.3268 35.2283 16.1387C35.5152 15.9506 35.8558 15.8616 36.198 15.8853H39.8438C40.9375 15.8853 41.1719 16.4322 40.9375 17.2134C39.6109 20.1842 37.9696 23.0042 36.0417 25.625C35.6511 26.2239 35.4949 26.5364 36.0417 27.2395C36.4063 27.7864 37.6824 28.8541 38.5417 29.8697C39.7917 31.1165 40.8296 32.5592 41.6145 34.1406C41.927 35.1562 41.4062 35.677 40.3645 35.677Z" fill="black"/>
</svg>
