<svg width="50" height="50" fill="none" xmlns="http://www.w3.org/2000/svg"><path d="M25 0c13.807 0 25 11.193 25 25S38.807 50 25 50 0 38.807 0 25 11.193 0 25 0zm11.104 15c-.953.017-2.414.518-9.446 3.406-2.463 1.012-7.386 3.105-14.768 6.28-1.198.47-1.826.931-1.883 1.381-.11.865 1.15 1.134 2.736 1.643 1.293.415 3.032.9 3.936.92.82.017 1.736-.317 2.746-1.002 6.898-4.597 10.458-6.92 10.681-6.97.158-.035.377-.08.525.05.148.13.133.376.118.442-.126.528-6.605 6.346-6.978 6.729l-.179.18c-1.373 1.356-2.762 2.242-.366 3.801 2.163 1.407 3.422 2.305 5.65 3.748 1.425.921 2.542 2.014 4.012 1.88.677-.06 1.376-.689 1.73-2.562.84-4.428 2.489-14.02 2.87-17.974a4.349 4.349 0 00-.043-.984c-.033-.195-.104-.472-.36-.677-.303-.243-.772-.294-.981-.291z" fill="#000"/></svg>